{"title":"House.of.Bodies(2013)720p.BRRip.H264.AAC.Raven","uid":11264094,"size":704260868,"categoryP":"video","categoryS":"movies","magnet":"?xt=urn:btih:66ffa6322ec9b6d38e422cfd7e7eea000f214bcb&amp;dn=House.of.Bodies%282013%29720p.BRRip.H264.AAC.Raven&amp;tr=udp%3A%2F%2Ftracker.openbittorrent.com%3A80&amp;tr=udp%3A%2F%2Fopen.demonii.com%3A1337&amp;tr=udp%3A%2F%2Ftracker.coppersurfer.tk%3A6969&amp;tr=udp%3A%2F%2Fexodus.desync.com%3A6969","seeders":0,"leechers":0,"uploader":"Raven1969","files":-1,"time":1414001416,"description":" _____________________________________________________________\n|$***********************************************************$|\n|* &quot;?$$$$$$N    &quot;$$$$$$&quot; &quot;$$$$&quot;  &quot;$$$&quot;$$$$$$$$$$&quot;&quot;$$$  &quot;$$$&quot; *|\n|* &quot;$$$&quot;&quot;&quot;$$k. &quot;$$$&quot;&quot;$$$&quot; &quot;$$$   .$$&quot;&quot;$$$&quot;&quot;&quot;&quot;$$$&quot;&quot;$$$_ '$$$&quot; *|\n|* &quot;$$$  &quot;$$F'&quot;$$&quot;    *$$&quot;&quot;$$$   .$$&quot;&quot;$$$&quot;       &quot;$$$$ '$$$&quot; *|\n|* &quot;$$$__&quot;$$&quot; &quot;$$&quot;____*$$&quot;&quot;$$$   .$$&quot;&quot;$$$$__*$$$&quot;&quot;$$$$$_$$$&quot; *|\n|* &quot;$$$**#$'  &quot;$$$$$$$$$$&quot;&quot;$$$   _$$&quot;&quot;$$$$$$$$$$&quot;&quot;$$$$$$$$$&quot; *| \n|* &quot;$$$&quot;&quot;&quot;$$. &quot;$$$&quot;&quot;&quot;&quot;$$$&quot;&quot;$$$_ .$$$&quot;&quot;$$$        &quot;$$$ '$$$$&quot; *|\n|* &quot;$$$   &quot;$$.&quot;$$&quot;    &quot;$$&quot;&quot;$$$$_.$$$&quot;&quot;$$$&quot;___*$$&quot;&quot;$$$  '$$$&quot; *|\n|* &quot;$$$    $$$&quot;$$$    $$$&quot;  &quot;$$$$$&quot;  &quot;$$$$$$$$$$&quot;&quot;$$$   $$$&quot; *|\n|* &quot;&quot;&quot;&quot;    &quot;&quot;&quot;&quot;&quot;&quot;&quot;    &quot;&quot;&quot;&quot;    &quot;&quot;&quot;    &quot;&quot;&quot;&quot;&quot;&quot;&quot;&quot;&quot;&quot;&quot;  &quot;&quot;&quot;   &quot;&quot;&quot;&quot; *|\n|$*************************(PRESENTS)************************$|\n\n      House.of.Bodies(2013)720p.BRRip.H264.AAC.Raven.mp4\n\n\n\nIMDB Rating:  5.0\n\n\n\nScreen image:\n &lt;a href=&quot;\nhttp://i.imgur.com/mwCvSV8.jpg&quot; rel=&quot;nofollow&quot; target=&quot;_NEW&quot;&gt;\nhttp://i.imgur.com/mwCvSV8.jpg&lt;/a&gt;\n\n\n\n\nStoryline:\n\nWhile indulging his appetite for the grim and gruesome by patronizing a voyeuristic Web site that's based in a house where a serial killer once lived, a hearing-impaired boy begins to suspect that the site's violence is more than just make-believe.\n\nA detective works to solve a case involving a young deaf boy and a web site that's run out of a home that once belonged to a serial killer.\n\n\n\nGeneral\nFormat                                   : MPEG-4\nFormat profile                           : Base Media\nCodec ID                                 : isom\nFile size                                : 671 MiB\nDuration                                 : 1h 18mn\nOverall bit rate mode                    : Variable\nOverall bit rate                         : 1 195 Kbps\nEncoded date                             : UTC 2014-10-22 15:23:42\nTagged date                              : UTC 2014-10-22 15:23:42\n\nVideo\nID                                       : 1\nFormat                                   : AVC\nFormat/Info                              : Advanced Video Codec\nFormat profile                           : &lt;a class=&quot;__cf_email__&quot; href=&quot;/cdn-cgi/l/email-protection&quot; data-cfemail=&quot;2d65444a456d6119031d&quot;&gt;[email&amp;#160;protected]&lt;/a&gt;&lt;script cf-hash='f9e31' type=&quot;text/javascript&quot;&gt;\n/* &lt;![CDATA[ */!function(){try{var t=&quot;currentScript&quot;in document?document.currentScript:function(){for(var t=document.getElementsByTagName(&quot;script&quot;),e=t.length;e--;)if(t[e].getAttribute(&quot;cf-hash&quot;))return t[e]}();if(t&amp;&amp;t.previousSibling){var e,r,n,i,c=t.previousSibling,a=c.getAttribute(&quot;data-cfemail&quot;);if(a){for(e=&quot;&quot;,r=parseInt(a.substr(0,2),16),n=2;a.length-n;n+=2)i=parseInt(a.substr(n,2),16)^r,e+=String.fromCharCode(i);e=document.createTextNode(e),c.parentNode.replaceChild(e,c)}}}catch(u){}}();/* ]]&gt; */&lt;/script&gt;\nFormat settings, CABAC                   : Yes\nFormat settings, ReFrames                : 8 frames\nCodec ID                                 : avc1\nCodec ID/Info                            : Advanced Video Coding\nDuration                                 : 1h 18mn\nBit rate                                 : 1 100 Kbps\nMaximum bit rate                         : 8 597 Kbps\nWidth                                    : 1 280 pixels\nHeight                                   : 720 pixels\nDisplay aspect ratio                     : 16:9\nFrame rate mode                          : Constant\nFrame rate                               : 23.976 fps\nColor space                              : YUV\nChroma subsampling                       : 4:2:0\nBit depth                                : 8 bits\nScan type                                : Progressive\nBits/(Pixel*Frame)                       : 0.050\nStream size                              : 618 MiB (92%)\nWriting library                          : x264 core 142 \nEncoded date                             : UTC 2014-10-22 15:23:42\nTagged date                              : UTC 2014-10-22 15:24:08\n\nAudio\nID                                       : 2\nFormat                                   : AAC\nFormat/Info                              : Advanced Audio Codec\nFormat profile                           : LC\nCodec ID                                 : 40\nDuration                                 : 1h 18mn\nBit rate mode                            : Variable\nBit rate                                 : 91.5 Kbps\nMaximum bit rate                         : 153 Kbps\nChannel(s)                               : 2 channels\nChannel positions                        : Front: L R\nSampling rate                            : 48.0 KHz\nCompression mode                         : Lossy\nStream size                              : 51.4 MiB (8%)\nEncoded date                             : UTC 2014-10-22 14:37:51\nTagged date                              : UTC 2014-10-22 15:24:08\n\nPLEASE  SEED FOR AS LONG AS POSSIBLE TO KEEP THE TORRENT ALIVE :-)","torrent":{"xt":"urn:btih:66ffa6322ec9b6d38e422cfd7e7eea000f214bcb","amp;dn":"House.of.Bodies%282013%29720p.BRRip.H264.AAC.Raven","amp;tr":["udp%3A%2F%2Ftracker.openbittorrent.com%3A80","udp%3A%2F%2Fopen.demonii.com%3A1337","udp%3A%2F%2Ftracker.coppersurfer.tk%3A6969","udp%3A%2F%2Fexodus.desync.com%3A6969"],"infoHash":"66ffa6322ec9b6d38e422cfd7e7eea000f214bcb","infoHashBuffer":{"type":"Buffer","data":[102,255,166,50,46,201,182,211,142,66,44,253,126,126,234,0,15,33,75,203]},"announce":[],"urlList":[]}}